# xmcd CD database file
#
# Track frame offsets:
#	150
#	23414
#	41196
#	59497
#	71456
#	87978
#	109514
#	126493
#	152352
#	171769
#	190356
#	205405
#
# Disc length: 3019 seconds
#
# Revision: 0
# Processed by: cddbd v1.5.2PL0 Copyright (c) Steve Scherf et al.
# Submitted via: CDex 1.70beta2
#
DISCID=a20bc90c
DTITLE=Gordon Webster - Happy When I'm With You
DYEAR=2009
DGENRE=Jazz
TTITLE0=Sometimes I'm Happy
TTITLE1=Long Gone John
TTITLE2=Summertime
TTITLE3=Twenty Four Robbers
TTITLE4=Sermonette
TTITLE5=I'm Confessin' That I Love You
TTITLE6=Sweet Lorraine
TTITLE7=Uptown Sop
TTITLE8=September in the Rain
TTITLE9=All Of Me
TTITLE10=Bill Bailey
TTITLE11=All Right, Okay, You Win
EXTD=YEAR: 2009
EXTT0=
EXTT1=
EXTT2=
EXTT3=
EXTT4=
EXTT5=
EXTT6=
EXTT7=
EXTT8=
EXTT9=
EXTT10=
EXTT11=
PLAYORDER=
